<svg width="209" height="55" viewBox="0 0 209 55" fill="none" xmlns="http://www.w3.org/2000/svg">
<path d="M17.1856 34.06C18.0256 31.26 18.7456 28.8 19.3456 26.68C19.9456 24.56 20.5456 22.38 21.1456 20.14C21.7456 17.9 22.3856 15.38 23.0656 12.58C23.7456 9.78 24.6056 6.3 25.6456 2.14C25.8456 1.38 26.0656 0.899997 26.3056 0.699997C26.5856 0.459998 27.1856 0.339998 28.1056 0.339998C28.5056 0.339998 29.1256 0.379998 29.9656 0.459997C30.8456 0.499999 31.7256 0.679999 32.6056 0.999997C33.4856 1.28 34.2656 1.72 34.9456 2.32C35.6256 2.88 35.9656 3.7 35.9656 4.78C35.9656 5.74 35.6856 7.22 35.1256 9.22C34.6056 11.18 33.9256 13.42 33.0856 15.94C32.2456 18.46 31.3056 21.1 30.2656 23.86C29.2656 26.58 28.2656 29.16 27.2656 31.6C26.2656 34.04 25.3456 36.18 24.5056 38.02C23.7056 39.86 23.1056 41.14 22.7056 41.86C22.2656 42.62 21.4856 43 20.3656 43H14.0656C13.0656 43 12.2256 42.82 11.5456 42.46C10.9056 42.06 10.3656 41.54 9.92563 40.9C9.48563 40.26 9.12563 39.54 8.84563 38.74C8.56563 37.9 8.32563 37.06 8.12563 36.22C6.76563 30.54 5.58563 25.62 4.58563 21.46C3.62563 17.26 2.82563 13.76 2.18563 10.96C1.54563 8.12 1.06563 5.94 0.745625 4.42C0.425625 2.9 0.265625 1.96 0.265625 1.6C0.265625 1.16 0.585625 0.839998 1.22563 0.639998C1.86563 0.399999 2.94563 0.279999 4.46563 0.279999C6.06563 0.279999 7.36563 0.439998 8.36563 0.759997C9.40563 1.08 10.2256 1.54 10.8256 2.14C11.4656 2.7 11.9256 3.38 12.2056 4.18C12.5256 4.94 12.7456 5.78 12.8656 6.7C12.9856 7.38 13.1056 8.2 13.2256 9.16C13.3456 10.08 13.5456 11.5 13.8256 13.42C14.1456 15.34 14.5656 17.94 15.0856 21.22C15.6056 24.46 16.3056 28.74 17.1856 34.06ZM50.4664 43.6C47.7064 43.6 45.4064 43.22 43.5664 42.46C41.7664 41.66 40.3264 40.58 39.2464 39.22C38.1664 37.86 37.4064 36.28 36.9664 34.48C36.5264 32.64 36.3064 30.68 36.3064 28.6C36.3064 26.2 36.5864 23.86 37.1464 21.58C37.7464 19.26 38.7464 17.2 40.1464 15.4C41.5464 13.6 43.3864 12.16 45.6664 11.08C47.9864 9.96 50.8664 9.4 54.3064 9.4C59.3464 9.4 62.9464 10.64 65.1064 13.12C67.3064 15.56 68.4064 19 68.4064 23.44C68.4064 24.68 68.3064 26.06 68.1064 27.58C67.9464 29.06 67.6064 30.54 67.0864 32.02C66.6064 33.5 65.9264 34.94 65.0464 36.34C64.2064 37.74 63.1264 38.98 61.8064 40.06C60.4864 41.14 58.8864 42 57.0064 42.64C55.1664 43.28 52.9864 43.6 50.4664 43.6ZM53.2864 17.38C51.7664 17.38 50.5464 17.78 49.6264 18.58C48.7464 19.34 48.0664 20.28 47.5864 21.4C47.1464 22.48 46.8464 23.64 46.6864 24.88C46.5664 26.08 46.5064 27.1 46.5064 27.94C46.5064 30.58 46.9264 32.52 47.7664 33.76C48.6064 35 49.8064 35.62 51.3664 35.62C52.7664 35.62 53.9064 35.18 54.7864 34.3C55.7064 33.42 56.4064 32.36 56.8864 31.12C57.4064 29.88 57.7464 28.58 57.9064 27.22C58.1064 25.86 58.2064 24.72 58.2064 23.8C58.2064 21.8 57.8264 20.24 57.0664 19.12C56.3464 17.96 55.0864 17.38 53.2864 17.38ZM84.3458 15.52C84.3458 16.44 84.2858 17.54 84.1658 18.82C84.0458 20.06 83.9058 21.32 83.7458 22.6C83.6258 23.84 83.5058 25.02 83.3858 26.14C83.2658 27.22 83.2058 28.06 83.2058 28.66C83.2058 30.18 83.5658 31.32 84.2858 32.08C85.0458 32.8 85.9658 33.16 87.0458 33.16C88.9258 33.16 90.4258 32.18 91.5458 30.22C92.6658 28.26 93.3658 25.66 93.6458 22.42L94.6058 11.2C94.6458 10.76 94.7858 10.46 95.0258 10.3C95.3058 10.1 95.6058 10 95.9258 10H98.0858C98.9258 10 99.7058 10.08 100.426 10.24C101.186 10.36 101.846 10.62 102.406 11.02C102.966 11.38 103.406 11.88 103.726 12.52C104.046 13.16 104.206 13.98 104.206 14.98C104.206 15.38 104.166 16.14 104.086 17.26C104.046 18.34 103.946 19.92 103.786 22C103.666 24.04 103.486 26.64 103.246 29.8C103.006 32.92 102.726 36.74 102.406 41.26C102.206 43.9 101.606 46.08 100.606 47.8C99.6458 49.56 98.4258 50.94 96.9458 51.94C95.4658 52.98 93.8058 53.7 91.9658 54.1C90.1258 54.5 88.2458 54.7 86.3258 54.7C84.2858 54.7 82.4058 54.52 80.6858 54.16C79.0058 53.8 77.5458 53.3 76.3058 52.66C75.0658 52.02 74.0858 51.28 73.3658 50.44C72.6858 49.6 72.3458 48.7 72.3458 47.74C72.3458 46.98 72.5058 46.32 72.8258 45.76C73.1858 45.2 73.6458 44.74 74.2058 44.38C74.7658 44.02 75.4058 43.74 76.1258 43.54C76.8858 43.38 77.6658 43.3 78.4658 43.3C78.8658 43.3 79.1458 43.5 79.3058 43.9C79.5058 44.3 79.7858 44.74 80.1458 45.22C80.5458 45.74 81.1658 46.2 82.0058 46.6C82.8458 47 84.1058 47.2 85.7858 47.2C87.2658 47.2 88.4658 46.84 89.3858 46.12C90.3058 45.4 91.0058 44.48 91.4858 43.36C92.0058 42.24 92.3458 41.02 92.5058 39.7C92.6658 38.38 92.7458 37.12 92.7458 35.92C92.1058 37.04 91.3858 37.96 90.5858 38.68C89.8258 39.36 89.0258 39.9 88.1858 40.3C87.3458 40.66 86.5058 40.9 85.6658 41.02C84.8258 41.14 84.0258 41.2 83.2658 41.2C81.7858 41.2 80.4258 41 79.1858 40.6C77.9858 40.2 76.9458 39.56 76.0658 38.68C75.1858 37.76 74.5058 36.58 74.0258 35.14C73.5458 33.7 73.3058 31.96 73.3058 29.92C73.3058 29.16 73.3458 28.16 73.4258 26.92C73.5058 25.64 73.6058 24.22 73.7258 22.66C73.8458 21.06 73.9658 19.34 74.0858 17.5C74.2458 15.66 74.4058 13.78 74.5658 11.86C74.6458 10.62 75.2058 10 76.2458 10H78.1658C79.4458 10 80.4858 10.12 81.2858 10.36C82.0858 10.6 82.7058 10.96 83.1458 11.44C83.6258 11.88 83.9458 12.46 84.1058 13.18C84.2658 13.86 84.3458 14.64 84.3458 15.52ZM107.707 35.62C107.707 32.02 109.327 29.2 112.567 27.16C115.807 25.12 120.587 24.02 126.907 23.86C126.947 23.42 126.967 23.06 126.967 22.78C127.007 22.46 127.027 22.08 127.027 21.64C127.027 20.36 126.787 19.34 126.307 18.58C125.827 17.82 124.827 17.44 123.307 17.44C122.467 17.44 121.787 17.56 121.267 17.8C120.747 18.04 120.327 18.38 120.007 18.82C119.687 19.22 119.427 19.72 119.227 20.32C119.027 20.92 118.847 21.58 118.687 22.3C118.607 22.66 118.427 22.9 118.147 23.02C117.867 23.1 117.427 23.14 116.827 23.14C112.747 23.14 110.707 21.6 110.707 18.52C110.707 17.28 110.987 16.1 111.547 14.98C112.147 13.86 113.007 12.9 114.127 12.1C115.287 11.26 116.727 10.6 118.447 10.12C120.167 9.64 122.167 9.4 124.447 9.4C128.887 9.4 132.107 10.32 134.107 12.16C136.107 14 137.107 16.6 137.107 19.96C137.107 20.4 137.047 21.2 136.927 22.36C136.847 23.48 136.727 24.68 136.567 25.96C136.447 27.2 136.327 28.38 136.207 29.5C136.127 30.62 136.087 31.4 136.087 31.84C136.087 32.84 136.267 33.56 136.627 34C136.987 34.4 137.387 34.68 137.827 34.84C138.307 35 138.727 35.12 139.087 35.2C139.447 35.28 139.627 35.48 139.627 35.8C139.627 36.68 139.507 37.58 139.267 38.5C139.027 39.42 138.627 40.26 138.067 41.02C137.547 41.78 136.807 42.4 135.847 42.88C134.927 43.36 133.787 43.6 132.427 43.6C130.507 43.6 129.067 43.14 128.107 42.22C127.147 41.3 126.507 40.02 126.187 38.38C125.227 39.78 123.967 41 122.407 42.04C120.887 43.08 118.887 43.6 116.407 43.6C115.207 43.6 114.067 43.46 112.987 43.18C111.947 42.9 111.027 42.44 110.227 41.8C109.467 41.16 108.847 40.34 108.367 39.34C107.927 38.3 107.707 37.06 107.707 35.62ZM126.367 28.78C125.327 28.78 124.307 28.86 123.307 29.02C122.307 29.18 121.407 29.44 120.607 29.8C119.847 30.12 119.227 30.56 118.747 31.12C118.267 31.68 118.027 32.36 118.027 33.16C118.027 34.08 118.307 34.72 118.867 35.08C119.467 35.44 120.107 35.62 120.787 35.62C121.427 35.62 122.067 35.48 122.707 35.2C123.347 34.92 123.907 34.5 124.387 33.94C124.907 33.34 125.347 32.62 125.707 31.78C126.067 30.94 126.287 29.94 126.367 28.78ZM162.935 35.92C161.935 37.72 160.715 39.06 159.275 39.94C157.835 40.78 156.035 41.2 153.875 41.2C152.235 41.2 150.735 40.94 149.375 40.42C148.015 39.9 146.855 39.08 145.895 37.96C144.935 36.84 144.175 35.44 143.615 33.76C143.095 32.04 142.835 30 142.835 27.64C142.835 25.72 143.035 23.7 143.435 21.58C143.835 19.42 144.555 17.44 145.595 15.64C146.675 13.84 148.135 12.36 149.975 11.2C151.815 10 154.175 9.4 157.055 9.4C158.255 9.4 159.275 9.54 160.115 9.82C160.995 10.06 161.735 10.4 162.335 10.84C162.975 11.28 163.475 11.8 163.835 12.4C164.235 13 164.535 13.64 164.735 14.32C164.735 14.36 164.735 14.22 164.735 13.9C164.775 13.54 164.815 13.14 164.855 12.7C164.895 12.26 164.915 11.84 164.915 11.44C164.955 11 164.975 10.72 164.975 10.6C165.015 10.2 165.275 10 165.755 10H168.515C170.595 10 172.095 10.44 173.015 11.32C173.975 12.16 174.455 13.78 174.455 16.18C174.455 16.5 174.435 17.24 174.395 18.4C174.355 19.52 174.275 20.88 174.155 22.48C174.075 24.08 173.955 25.86 173.795 27.82C173.635 29.74 173.455 31.68 173.255 33.64C173.055 35.6 172.835 37.48 172.595 39.28C172.355 41.08 172.095 42.66 171.815 44.02C171.535 45.38 171.055 46.7 170.375 47.98C169.695 49.26 168.735 50.4 167.495 51.4C166.255 52.4 164.655 53.2 162.695 53.8C160.775 54.4 158.415 54.7 155.615 54.7C153.495 54.7 151.635 54.5 150.035 54.1C148.475 53.7 147.175 53.16 146.135 52.48C145.095 51.84 144.295 51.1 143.735 50.26C143.215 49.42 142.955 48.58 142.955 47.74C142.955 46.98 143.115 46.32 143.435 45.76C143.755 45.2 144.175 44.74 144.695 44.38C145.215 44.02 145.775 43.74 146.375 43.54C147.015 43.38 147.615 43.3 148.175 43.3C148.855 43.3 149.355 43.5 149.675 43.9C149.995 44.3 150.355 44.74 150.755 45.22C151.155 45.74 151.715 46.2 152.435 46.6C153.155 47 154.275 47.2 155.795 47.2C158.435 47.2 160.275 46.22 161.315 44.26C162.395 42.34 162.935 39.56 162.935 35.92ZM157.895 33.22C159.335 33.22 160.455 32.88 161.255 32.2C162.095 31.52 162.735 30.7 163.175 29.74C163.615 28.78 163.895 27.78 164.015 26.74C164.135 25.7 164.195 24.8 164.195 24.04C164.195 21.64 163.815 19.94 163.055 18.94C162.335 17.9 161.235 17.38 159.755 17.38C158.275 17.38 157.115 17.78 156.275 18.58C155.435 19.38 154.795 20.34 154.355 21.46C153.955 22.54 153.695 23.64 153.575 24.76C153.455 25.84 153.395 26.68 153.395 27.28C153.395 29.28 153.735 30.78 154.415 31.78C155.095 32.74 156.255 33.22 157.895 33.22ZM193.621 43.6C191.861 43.6 190.101 43.38 188.341 42.94C186.621 42.5 185.061 41.74 183.661 40.66C182.301 39.58 181.181 38.14 180.301 36.34C179.421 34.54 178.981 32.28 178.981 29.56C178.981 28.56 179.061 27.36 179.221 25.96C179.381 24.56 179.681 23.12 180.121 21.64C180.601 20.16 181.241 18.7 182.041 17.26C182.881 15.78 183.961 14.46 185.281 13.3C186.601 12.14 188.201 11.2 190.081 10.48C191.961 9.76 194.201 9.4 196.801 9.4C198.881 9.4 200.641 9.64 202.081 10.12C203.521 10.6 204.681 11.26 205.561 12.1C206.441 12.9 207.081 13.84 207.481 14.92C207.881 16 208.081 17.16 208.081 18.4C208.081 20.24 207.701 21.8 206.941 23.08C206.221 24.36 205.261 25.44 204.061 26.32C202.901 27.16 201.601 27.82 200.161 28.3C198.721 28.78 197.301 29.16 195.901 29.44C194.501 29.68 193.201 29.84 192.001 29.92C190.841 29.96 189.941 29.98 189.301 29.98C189.301 30.74 189.401 31.5 189.601 32.26C189.841 32.98 190.181 33.62 190.621 34.18C191.061 34.74 191.641 35.2 192.361 35.56C193.081 35.92 193.961 36.1 195.001 36.1C196.041 36.1 196.841 35.94 197.401 35.62C198.001 35.26 198.481 34.88 198.841 34.48C199.201 34.04 199.501 33.66 199.741 33.34C200.021 32.98 200.381 32.8 200.821 32.8C201.021 32.8 201.361 32.86 201.841 32.98C202.361 33.06 202.881 33.26 203.401 33.58C203.921 33.9 204.381 34.34 204.781 34.9C205.181 35.46 205.381 36.18 205.381 37.06C205.381 38.22 205.021 39.22 204.301 40.06C203.581 40.9 202.641 41.58 201.481 42.1C200.361 42.62 199.101 43 197.701 43.24C196.301 43.48 194.941 43.6 193.621 43.6ZM194.761 17.38C193.881 17.38 193.121 17.64 192.481 18.16C191.881 18.64 191.361 19.26 190.921 20.02C190.521 20.78 190.201 21.62 189.961 22.54C189.761 23.46 189.601 24.34 189.481 25.18C191.961 25.14 193.961 24.72 195.481 23.92C197.041 23.12 197.821 21.98 197.821 20.5C197.821 19.7 197.561 18.98 197.041 18.34C196.561 17.7 195.801 17.38 194.761 17.38Z" fill="#C6B29A"/>
</svg>
